<mxfile host="app.diagrams.net" modified="2023-12-05T21:29:49.413Z" agent="Mozilla/5.0 (Windows NT 10.0; Win64; x64) AppleWebKit/537.36 (KHTML, like Gecko) Chrome/119.0.0.0 Safari/537.36" etag="8PViMke966yO_e1HUpPC" version="22.1.5" type="device">
  <diagram name="Página-1" id="tPPJbCeXgJZ2ICkLLyi5">
    <mxGraphModel dx="231" dy="124" grid="1" gridSize="10" guides="1" tooltips="1" connect="1" arrows="1" fold="1" page="1" pageScale="1" pageWidth="827" pageHeight="1169" math="0" shadow="0">
      <root>
        <mxCell id="0" />
        <mxCell id="1" parent="0" />
        <mxCell id="_-m-CiRys5ogKV522doP-2" value="" style="rounded=0;whiteSpace=wrap;html=1;strokeWidth=1;" parent="1" vertex="1">
          <mxGeometry x="140" y="110" width="560" height="960" as="geometry" />
        </mxCell>
        <mxCell id="_-m-CiRys5ogKV522doP-5" value="Usuário" style="shape=umlActor;verticalLabelPosition=bottom;verticalAlign=top;html=1;outlineConnect=0;strokeWidth=1;" parent="1" vertex="1">
          <mxGeometry x="20" y="390" width="60" height="120" as="geometry" />
        </mxCell>
        <mxCell id="_-m-CiRys5ogKV522doP-6" value="&lt;font style=&quot;vertical-align: inherit;&quot;&gt;&lt;font style=&quot;vertical-align: inherit;&quot;&gt;Administrador&lt;/font&gt;&lt;/font&gt;" style="shape=umlActor;verticalLabelPosition=bottom;verticalAlign=top;html=1;outlineConnect=0;strokeWidth=1;" parent="1" vertex="1">
          <mxGeometry x="740" y="390" width="60" height="120" as="geometry" />
        </mxCell>
        <mxCell id="_-m-CiRys5ogKV522doP-28" style="edgeStyle=orthogonalEdgeStyle;rounded=0;orthogonalLoop=1;jettySize=auto;html=1;exitX=1;exitY=0;exitDx=0;exitDy=0;entryX=0;entryY=0.5;entryDx=0;entryDy=0;dashed=1;endArrow=open;endFill=0;strokeWidth=1;" parent="1" source="_-m-CiRys5ogKV522doP-9" target="_-m-CiRys5ogKV522doP-20" edge="1">
          <mxGeometry relative="1" as="geometry" />
        </mxCell>
        <mxCell id="_-m-CiRys5ogKV522doP-9" value="Cadastrar Usuário" style="ellipse;whiteSpace=wrap;html=1;strokeWidth=1;" parent="1" vertex="1">
          <mxGeometry x="200" y="193" width="120" height="80" as="geometry" />
        </mxCell>
        <mxCell id="_-m-CiRys5ogKV522doP-12" value="Alterar Cadastro" style="ellipse;whiteSpace=wrap;html=1;strokeWidth=1;" parent="1" vertex="1">
          <mxGeometry x="200" y="503" width="120" height="80" as="geometry" />
        </mxCell>
        <mxCell id="_-m-CiRys5ogKV522doP-13" value="Consultar Atividade" style="ellipse;whiteSpace=wrap;html=1;strokeWidth=1;" parent="1" vertex="1">
          <mxGeometry x="200" y="603" width="120" height="80" as="geometry" />
        </mxCell>
        <mxCell id="_-m-CiRys5ogKV522doP-41" style="edgeStyle=orthogonalEdgeStyle;rounded=0;orthogonalLoop=1;jettySize=auto;html=1;exitX=1;exitY=0.5;exitDx=0;exitDy=0;endArrow=none;endFill=0;strokeWidth=1;" parent="1" source="_-m-CiRys5ogKV522doP-14" edge="1">
          <mxGeometry relative="1" as="geometry">
            <mxPoint x="770.0000000000005" y="450" as="targetPoint" />
            <Array as="points">
              <mxPoint x="730" y="743" />
              <mxPoint x="730" y="450" />
            </Array>
          </mxGeometry>
        </mxCell>
        <mxCell id="_-m-CiRys5ogKV522doP-14" value="Selecionar&lt;br&gt;Atividade" style="ellipse;whiteSpace=wrap;html=1;strokeWidth=1;" parent="1" vertex="1">
          <mxGeometry x="200" y="703" width="120" height="80" as="geometry" />
        </mxCell>
        <mxCell id="_-m-CiRys5ogKV522doP-38" style="edgeStyle=orthogonalEdgeStyle;rounded=0;orthogonalLoop=1;jettySize=auto;html=1;exitX=0;exitY=0.5;exitDx=0;exitDy=0;strokeWidth=1;endArrow=none;endFill=0;" parent="1" source="_-m-CiRys5ogKV522doP-15" edge="1">
          <mxGeometry relative="1" as="geometry">
            <mxPoint x="50" y="450" as="targetPoint" />
            <Array as="points">
              <mxPoint x="100" y="843" />
              <mxPoint x="100" y="450" />
            </Array>
          </mxGeometry>
        </mxCell>
        <mxCell id="FogCVz4P-83Ox8owbyvJ-2" style="edgeStyle=orthogonalEdgeStyle;rounded=0;orthogonalLoop=1;jettySize=auto;html=1;exitX=1;exitY=0.5;exitDx=0;exitDy=0;entryX=0;entryY=0.5;entryDx=0;entryDy=0;dashed=1;endArrow=open;endFill=0;" parent="1" source="_-m-CiRys5ogKV522doP-15" target="FogCVz4P-83Ox8owbyvJ-1" edge="1">
          <mxGeometry relative="1" as="geometry" />
        </mxCell>
        <mxCell id="_-m-CiRys5ogKV522doP-15" value="Avaliar&lt;br&gt;Evento/Entidade" style="ellipse;whiteSpace=wrap;html=1;strokeWidth=1;" parent="1" vertex="1">
          <mxGeometry x="200" y="803" width="120" height="80" as="geometry" />
        </mxCell>
        <mxCell id="_-m-CiRys5ogKV522doP-20" value="Verificar dados do cadastro" style="ellipse;whiteSpace=wrap;html=1;strokeWidth=1;" parent="1" vertex="1">
          <mxGeometry x="500" y="143" width="120" height="80" as="geometry" />
        </mxCell>
        <mxCell id="_-m-CiRys5ogKV522doP-29" style="edgeStyle=orthogonalEdgeStyle;rounded=0;orthogonalLoop=1;jettySize=auto;html=1;exitX=0;exitY=0.5;exitDx=0;exitDy=0;entryX=1;entryY=1;entryDx=0;entryDy=0;endArrow=open;endFill=0;dashed=1;strokeWidth=1;" parent="1" source="_-m-CiRys5ogKV522doP-21" target="_-m-CiRys5ogKV522doP-9" edge="1">
          <mxGeometry relative="1" as="geometry" />
        </mxCell>
        <mxCell id="_-m-CiRys5ogKV522doP-21" value="Enviar&amp;nbsp; mensagem&lt;br&gt;de erro" style="ellipse;whiteSpace=wrap;html=1;strokeWidth=1;" parent="1" vertex="1">
          <mxGeometry x="500" y="243" width="120" height="80" as="geometry" />
        </mxCell>
        <mxCell id="_-m-CiRys5ogKV522doP-31" style="edgeStyle=orthogonalEdgeStyle;rounded=0;orthogonalLoop=1;jettySize=auto;html=1;exitX=1;exitY=0;exitDx=0;exitDy=0;entryX=0;entryY=0.5;entryDx=0;entryDy=0;endArrow=open;endFill=0;strokeWidth=1;dashed=1;" parent="1" source="_-m-CiRys5ogKV522doP-24" target="_-m-CiRys5ogKV522doP-25" edge="1">
          <mxGeometry relative="1" as="geometry" />
        </mxCell>
        <mxCell id="_-m-CiRys5ogKV522doP-24" value="Logar no Sistema" style="ellipse;whiteSpace=wrap;html=1;strokeWidth=1;" parent="1" vertex="1">
          <mxGeometry x="200" y="393" width="120" height="80" as="geometry" />
        </mxCell>
        <mxCell id="_-m-CiRys5ogKV522doP-25" value="Validar login" style="ellipse;whiteSpace=wrap;html=1;strokeWidth=1;" parent="1" vertex="1">
          <mxGeometry x="500" y="343" width="120" height="80" as="geometry" />
        </mxCell>
        <mxCell id="_-m-CiRys5ogKV522doP-32" style="edgeStyle=orthogonalEdgeStyle;rounded=0;orthogonalLoop=1;jettySize=auto;html=1;exitX=0;exitY=0.5;exitDx=0;exitDy=0;entryX=1;entryY=1;entryDx=0;entryDy=0;endArrow=open;endFill=0;strokeWidth=1;dashed=1;" parent="1" source="_-m-CiRys5ogKV522doP-26" target="_-m-CiRys5ogKV522doP-24" edge="1">
          <mxGeometry relative="1" as="geometry" />
        </mxCell>
        <mxCell id="_-m-CiRys5ogKV522doP-26" value="Enviar mensagem&lt;br&gt;de erro" style="ellipse;whiteSpace=wrap;html=1;strokeWidth=1;" parent="1" vertex="1">
          <mxGeometry x="500" y="443" width="120" height="80" as="geometry" />
        </mxCell>
        <mxCell id="_-m-CiRys5ogKV522doP-33" style="edgeStyle=orthogonalEdgeStyle;rounded=0;orthogonalLoop=1;jettySize=auto;html=1;exitX=0;exitY=0.5;exitDx=0;exitDy=0;entryX=0.5;entryY=0.5;entryDx=0;entryDy=0;entryPerimeter=0;endArrow=none;endFill=0;strokeWidth=1;" parent="1" source="_-m-CiRys5ogKV522doP-9" target="_-m-CiRys5ogKV522doP-5" edge="1">
          <mxGeometry relative="1" as="geometry">
            <Array as="points">
              <mxPoint x="100" y="233" />
              <mxPoint x="100" y="450" />
            </Array>
          </mxGeometry>
        </mxCell>
        <mxCell id="_-m-CiRys5ogKV522doP-34" style="edgeStyle=orthogonalEdgeStyle;rounded=0;orthogonalLoop=1;jettySize=auto;html=1;exitX=0;exitY=0.5;exitDx=0;exitDy=0;entryX=0.5;entryY=0.5;entryDx=0;entryDy=0;entryPerimeter=0;endArrow=none;endFill=0;strokeWidth=1;" parent="1" source="_-m-CiRys5ogKV522doP-24" target="_-m-CiRys5ogKV522doP-5" edge="1">
          <mxGeometry relative="1" as="geometry">
            <Array as="points">
              <mxPoint x="100" y="433" />
              <mxPoint x="100" y="450" />
            </Array>
          </mxGeometry>
        </mxCell>
        <mxCell id="_-m-CiRys5ogKV522doP-35" style="edgeStyle=orthogonalEdgeStyle;rounded=0;orthogonalLoop=1;jettySize=auto;html=1;exitX=0;exitY=0.5;exitDx=0;exitDy=0;entryX=0.5;entryY=0.5;entryDx=0;entryDy=0;entryPerimeter=0;endArrow=none;endFill=0;strokeWidth=1;" parent="1" source="_-m-CiRys5ogKV522doP-12" target="_-m-CiRys5ogKV522doP-5" edge="1">
          <mxGeometry relative="1" as="geometry">
            <Array as="points">
              <mxPoint x="100" y="543" />
              <mxPoint x="100" y="450" />
            </Array>
          </mxGeometry>
        </mxCell>
        <mxCell id="_-m-CiRys5ogKV522doP-36" style="edgeStyle=orthogonalEdgeStyle;rounded=0;orthogonalLoop=1;jettySize=auto;html=1;exitX=0;exitY=0.5;exitDx=0;exitDy=0;entryX=0.5;entryY=0.5;entryDx=0;entryDy=0;entryPerimeter=0;strokeWidth=1;endArrow=none;endFill=0;" parent="1" source="_-m-CiRys5ogKV522doP-13" target="_-m-CiRys5ogKV522doP-5" edge="1">
          <mxGeometry relative="1" as="geometry">
            <Array as="points">
              <mxPoint x="100" y="643" />
              <mxPoint x="100" y="450" />
            </Array>
          </mxGeometry>
        </mxCell>
        <mxCell id="_-m-CiRys5ogKV522doP-37" style="edgeStyle=orthogonalEdgeStyle;rounded=0;orthogonalLoop=1;jettySize=auto;html=1;exitX=0;exitY=0.5;exitDx=0;exitDy=0;entryX=0.5;entryY=0.5;entryDx=0;entryDy=0;entryPerimeter=0;strokeWidth=1;endArrow=none;endFill=0;" parent="1" source="_-m-CiRys5ogKV522doP-14" target="_-m-CiRys5ogKV522doP-5" edge="1">
          <mxGeometry relative="1" as="geometry">
            <Array as="points">
              <mxPoint x="100" y="743" />
              <mxPoint x="100" y="450" />
            </Array>
          </mxGeometry>
        </mxCell>
        <mxCell id="_-m-CiRys5ogKV522doP-39" style="edgeStyle=orthogonalEdgeStyle;rounded=0;orthogonalLoop=1;jettySize=auto;html=1;exitX=1;exitY=0.5;exitDx=0;exitDy=0;entryX=0.5;entryY=0.5;entryDx=0;entryDy=0;entryPerimeter=0;endArrow=none;endFill=0;strokeWidth=1;" parent="1" source="_-m-CiRys5ogKV522doP-12" target="_-m-CiRys5ogKV522doP-6" edge="1">
          <mxGeometry relative="1" as="geometry">
            <Array as="points">
              <mxPoint x="730" y="543" />
              <mxPoint x="730" y="450" />
            </Array>
          </mxGeometry>
        </mxCell>
        <mxCell id="_-m-CiRys5ogKV522doP-40" style="edgeStyle=orthogonalEdgeStyle;rounded=0;orthogonalLoop=1;jettySize=auto;html=1;exitX=1;exitY=0.5;exitDx=0;exitDy=0;entryX=0.5;entryY=0.5;entryDx=0;entryDy=0;entryPerimeter=0;endArrow=none;endFill=0;strokeWidth=1;" parent="1" source="_-m-CiRys5ogKV522doP-13" target="_-m-CiRys5ogKV522doP-6" edge="1">
          <mxGeometry relative="1" as="geometry">
            <Array as="points">
              <mxPoint x="730" y="643" />
              <mxPoint x="730" y="450" />
            </Array>
          </mxGeometry>
        </mxCell>
        <mxCell id="SH5L0Hox0741thRIzfuZ-7" style="edgeStyle=orthogonalEdgeStyle;rounded=0;orthogonalLoop=1;jettySize=auto;html=1;exitX=1;exitY=0;exitDx=0;exitDy=0;entryX=0;entryY=0.5;entryDx=0;entryDy=0;endArrow=open;endFill=0;strokeWidth=1;dashed=1;" parent="1" source="SH5L0Hox0741thRIzfuZ-8" target="SH5L0Hox0741thRIzfuZ-9" edge="1">
          <mxGeometry relative="1" as="geometry" />
        </mxCell>
        <mxCell id="SH5L0Hox0741thRIzfuZ-8" value="Obter Certificado" style="ellipse;whiteSpace=wrap;html=1;strokeWidth=1;" parent="1" vertex="1">
          <mxGeometry x="200" y="911" width="120" height="80" as="geometry" />
        </mxCell>
        <mxCell id="SH5L0Hox0741thRIzfuZ-9" value="Verificar&lt;br&gt;Participação" style="ellipse;whiteSpace=wrap;html=1;strokeWidth=1;" parent="1" vertex="1">
          <mxGeometry x="500" y="861" width="120" height="80" as="geometry" />
        </mxCell>
        <mxCell id="SH5L0Hox0741thRIzfuZ-10" style="edgeStyle=orthogonalEdgeStyle;rounded=0;orthogonalLoop=1;jettySize=auto;html=1;exitX=0;exitY=0.5;exitDx=0;exitDy=0;entryX=1;entryY=1;entryDx=0;entryDy=0;endArrow=open;endFill=0;strokeWidth=1;dashed=1;" parent="1" source="SH5L0Hox0741thRIzfuZ-11" target="SH5L0Hox0741thRIzfuZ-8" edge="1">
          <mxGeometry relative="1" as="geometry" />
        </mxCell>
        <mxCell id="SH5L0Hox0741thRIzfuZ-11" value="Gerar Certificado" style="ellipse;whiteSpace=wrap;html=1;strokeWidth=1;" parent="1" vertex="1">
          <mxGeometry x="500" y="961" width="120" height="80" as="geometry" />
        </mxCell>
        <mxCell id="SH5L0Hox0741thRIzfuZ-12" style="edgeStyle=orthogonalEdgeStyle;rounded=0;orthogonalLoop=1;jettySize=auto;html=1;exitX=0;exitY=0.5;exitDx=0;exitDy=0;entryX=0.5;entryY=0.5;entryDx=0;entryDy=0;entryPerimeter=0;endArrow=classic;endFill=1;" parent="1" source="SH5L0Hox0741thRIzfuZ-8" target="_-m-CiRys5ogKV522doP-5" edge="1">
          <mxGeometry relative="1" as="geometry">
            <Array as="points">
              <mxPoint x="100" y="951" />
              <mxPoint x="100" y="450" />
            </Array>
          </mxGeometry>
        </mxCell>
        <mxCell id="FogCVz4P-83Ox8owbyvJ-1" value="Guardar Respostas" style="ellipse;whiteSpace=wrap;html=1;" parent="1" vertex="1">
          <mxGeometry x="500" y="760" width="120" height="80" as="geometry" />
        </mxCell>
      </root>
    </mxGraphModel>
  </diagram>
</mxfile>
